<!-- Generated by IcoMoon.io -->
<svg version="1.1" xmlns="http://www.w3.org/2000/svg" width="32" height="32" viewBox="0 0 32 32">
<title>check_circle</title>
<path d="M12.835 23.877l14.134-14.134-2.209-2.283-11.925 11.926-5.595-5.595-2.208 2.209 7.803 7.877zM16 0.32c4.318 0 8.012 1.534 11.079 4.6 3.066 3.068 4.601 6.761 4.601 11.080s-1.534 8.012-4.601 11.079c-3.068 3.066-6.761 4.601-11.079 4.601-4.319 0-8.012-1.534-11.079-4.601-3.067-3.068-4.601-6.761-4.601-11.079s1.534-8.012 4.601-11.079c3.067-3.067 6.76-4.601 11.079-4.601z"></path>
</svg>
