<!-- Generated by IcoMoon.io -->
<svg version="1.1" xmlns="http://www.w3.org/2000/svg" width="32" height="32" viewBox="0 0 32 32">
<title>remove_circle_outline</title>
<path d="M16 28.588c3.434 0 6.392-1.239 8.871-3.716 2.477-2.479 3.717-5.435 3.717-8.871 0-3.435-1.24-6.392-3.717-8.871-2.479-2.478-5.436-3.717-8.871-3.717s-6.392 1.239-8.87 3.717c-2.478 2.479-3.717 5.436-3.717 8.871s1.239 6.392 3.717 8.871c2.478 2.477 5.435 3.716 8.87 3.716zM16 0.32c4.318 0 8.012 1.534 11.079 4.6 3.066 3.068 4.601 6.761 4.601 11.080s-1.534 8.012-4.601 11.079c-3.068 3.066-6.761 4.601-11.079 4.601-4.319 0-8.012-1.534-11.079-4.601-3.067-3.068-4.601-6.761-4.601-11.079s1.534-8.012 4.601-11.079c3.067-3.067 6.76-4.601 11.079-4.601zM8.124 14.454h15.753v3.091h-15.753v-3.091z"></path>
</svg>
