<!-- Generated by IcoMoon.io -->
<svg version="1.1" xmlns="http://www.w3.org/2000/svg" width="32" height="32" viewBox="0 0 32 32">
<title>shopping_cart</title>
<path d="M25.436 25.4c0.833 0 1.556 0.319 2.168 0.954 0.611 0.638 0.916 1.372 0.916 2.204 0 0.833-0.305 1.555-0.916 2.167s-1.335 0.918-2.168 0.917c-0.832 0-1.567-0.306-2.203-0.917s-0.955-1.333-0.955-2.167c0-0.833 0.318-1.567 0.955-2.204 0.638-0.634 1.372-0.952 2.203-0.954zM0.321 0.358h5.14l1.469 3.084h23.207c0.441 0 0.809 0.159 1.102 0.477s0.441 0.698 0.441 1.139c0 0.245-0.074 0.49-0.221 0.734l-5.581 10.134c-0.588 1.077-1.493 1.615-2.717 1.615h-11.678l-1.396 2.572-0.074 0.221c0 0.244 0.123 0.367 0.368 0.367h18.14v3.158h-18.801c-0.833 0-1.555-0.318-2.167-0.954s-0.917-1.371-0.917-2.204c0-0.488 0.123-0.98 0.368-1.469l2.131-3.893-5.655-11.897h-3.158v-3.084l0.001-0.001zM9.721 25.4c0.833 0 1.567 0.319 2.203 0.954 0.636 0.638 0.955 1.372 0.955 2.204 0 0.833-0.318 1.555-0.955 2.167s-1.372 0.918-2.203 0.917c-0.831 0-1.553-0.306-2.166-0.917s-0.92-1.333-0.918-2.167c0.002-0.833 0.308-1.567 0.918-2.204 0.61-0.634 1.332-0.952 2.166-0.954z"></path>
</svg>
