<!-- Generated by IcoMoon.io -->
<svg version="1.1" xmlns="http://www.w3.org/2000/svg" width="32" height="32" viewBox="0 0 32 32">
<title>thumb_up</title>
<path d="M31.68 14.566l-0.067 0.133h0.067v2.736c0 0.356-0.067 0.712-0.2 1.068l-4.338 10.008c-0.445 1.156-1.313 1.735-2.603 1.735h-12.811c-0.756 0-1.424-0.289-2.002-0.869-0.578-0.578-0.868-1.245-0.868-2.002v-14.212c0-0.756 0.289-1.424 0.868-2.002l9.341-9.409 1.536 1.535c0.401 0.401 0.601 0.89 0.601 1.468v0.468l-1.401 6.539h9.008c0.756 0 1.424 0.278 2.002 0.834 0.578 0.557 0.867 1.212 0.867 1.969zM0.32 30.245v-17.081h5.739v17.081h-5.739z"></path>
</svg>
