<!-- Generated by IcoMoon.io -->
<svg version="1.1" xmlns="http://www.w3.org/2000/svg" width="32" height="32" viewBox="0 0 32 32">
<title>thumb_down</title>
<path d="M25.942 1.755h5.738v17.080h-5.738v-17.080zM20.271 1.755c0.756 0 1.424 0.289 2.002 0.868s0.868 1.246 0.868 2.002v14.212c0 0.756-0.289 1.423-0.868 2.002l-9.341 9.408-1.535-1.535c-0.401-0.402-0.601-0.889-0.601-1.468v-0.468l1.402-6.539h-9.008c-0.756 0-1.423-0.277-2.002-0.833s-0.867-1.212-0.868-1.969l0.067-0.133h-0.067v-2.735c0-0.356 0.067-0.712 0.201-1.068l4.337-10.008c0.444-1.156 1.313-1.735 2.603-1.735l12.811 0z"></path>
</svg>
