<?xml version="1.0" encoding="utf-8"?>
<!-- Generated by IcoMoon.io -->
<svg version="1.1" xmlns="http://www.w3.org/2000/svg" xmlns:xlink="http://www.w3.org/1999/xlink" width="32" height="320" viewBox="0 0 32 320">
<svg id="sicon-add_circle" width="32" height="32" viewBox="0 0 32 32" x="0" y="0">
<path d="M23.877 17.546v-3.091h-6.331v-6.331h-3.091v6.331h-6.331v3.091h6.331v6.331h3.091v-6.331h6.331zM16 0.32c4.318 0 8.012 1.534 11.079 4.6 3.066 3.068 4.601 6.761 4.601 11.080s-1.534 8.012-4.601 11.079c-3.068 3.066-6.761 4.601-11.079 4.601-4.319 0-8.012-1.534-11.079-4.601-3.067-3.068-4.601-6.761-4.601-11.079s1.534-8.012 4.601-11.079c3.067-3.067 6.76-4.601 11.079-4.601z"></path>
</svg>
<svg id="sicon-arrow_lift" width="32" height="32" viewBox="0 0 32 32" x="0" y="32">
<path d="M7.773 14.634l13.743-13.734c0.773-0.773 1.938-0.773 2.711 0s0.773 1.938 0 2.711l-12.388 12.388 12.388 12.389c0.772 0.773 0.772 1.938 0 2.712-0.774 0.772-1.938 0.772-2.712 0l-13.743-13.755c-0.773-0.774-0.773-1.939 0-2.712z"></path>
</svg>
<svg id="sicon-check_circle" width="32" height="32" viewBox="0 0 32 32" x="0" y="64">
<path d="M12.835 23.877l14.134-14.134-2.209-2.283-11.925 11.926-5.595-5.595-2.208 2.209 7.803 7.877zM16 0.32c4.318 0 8.012 1.534 11.079 4.6 3.066 3.068 4.601 6.761 4.601 11.080s-1.534 8.012-4.601 11.079c-3.068 3.066-6.761 4.601-11.079 4.601-4.319 0-8.012-1.534-11.079-4.601-3.067-3.068-4.601-6.761-4.601-11.079s1.534-8.012 4.601-11.079c3.067-3.067 6.76-4.601 11.079-4.601z"></path>
</svg>
<svg id="sicon-close" width="32" height="32" viewBox="0 0 32 32" x="0" y="96">
<path d="M31.68 3.476l-12.523 12.524 12.523 12.524-3.157 3.157-12.523-12.524-12.524 12.524-3.157-3.157 12.524-12.524-12.524-12.524 3.157-3.157 12.524 12.524 12.523-12.524 3.157 3.157z"></path>
</svg>
<svg id="sicon-favorite" width="32" height="32" viewBox="0 0 32 32" x="0" y="128">
<path d="M16 30.392l-2.283-2.061c-8.097-7.362-13.397-12.147-13.397-18.109 0-4.858 3.755-8.613 8.613-8.613 2.724 0 5.374 1.325 7.067 3.313 1.693-1.988 4.343-3.313 7.067-3.313 4.859 0 8.613 3.756 8.613 8.613 0 5.964-5.3 10.822-13.398 18.183l-2.282 1.987z"></path>
</svg>
<svg id="sicon-keyboard_arrow_right" width="32" height="32" viewBox="0 0 32 32" x="0" y="160">
<path d="M6.323 28.005l12.005-12.004-12.005-12.005 3.675-3.676 15.68 15.681-15.68 15.679-3.675-3.675z"></path>
</svg>
<svg id="sicon-remove_circle_outline" width="32" height="32" viewBox="0 0 32 32" x="0" y="192">
<path d="M16 28.588c3.434 0 6.392-1.239 8.871-3.716 2.477-2.479 3.717-5.435 3.717-8.871 0-3.435-1.24-6.392-3.717-8.871-2.479-2.478-5.436-3.717-8.871-3.717s-6.392 1.239-8.87 3.717c-2.478 2.479-3.717 5.436-3.717 8.871s1.239 6.392 3.717 8.871c2.478 2.477 5.435 3.716 8.87 3.716zM16 0.32c4.318 0 8.012 1.534 11.079 4.6 3.066 3.068 4.601 6.761 4.601 11.080s-1.534 8.012-4.601 11.079c-3.068 3.066-6.761 4.601-11.079 4.601-4.319 0-8.012-1.534-11.079-4.601-3.067-3.068-4.601-6.761-4.601-11.079s1.534-8.012 4.601-11.079c3.067-3.067 6.76-4.601 11.079-4.601zM8.124 14.454h15.753v3.091h-15.753v-3.091z"></path>
</svg>
<svg id="sicon-shopping_cart" width="32" height="32" viewBox="0 0 32 32" x="0" y="224">
<path d="M25.436 25.4c0.833 0 1.556 0.319 2.168 0.954 0.611 0.638 0.916 1.372 0.916 2.204 0 0.833-0.305 1.555-0.916 2.167s-1.335 0.918-2.168 0.917c-0.832 0-1.567-0.306-2.203-0.917s-0.955-1.333-0.955-2.167c0-0.833 0.318-1.567 0.955-2.204 0.638-0.634 1.372-0.952 2.203-0.954zM0.321 0.358h5.14l1.469 3.084h23.207c0.441 0 0.809 0.159 1.102 0.477s0.441 0.698 0.441 1.139c0 0.245-0.074 0.49-0.221 0.734l-5.581 10.134c-0.588 1.077-1.493 1.615-2.717 1.615h-11.678l-1.396 2.572-0.074 0.221c0 0.244 0.123 0.367 0.368 0.367h18.14v3.158h-18.801c-0.833 0-1.555-0.318-2.167-0.954s-0.917-1.371-0.917-2.204c0-0.488 0.123-0.98 0.368-1.469l2.131-3.893-5.655-11.897h-3.158v-3.084l0.001-0.001zM9.721 25.4c0.833 0 1.567 0.319 2.203 0.954 0.636 0.638 0.955 1.372 0.955 2.204 0 0.833-0.318 1.555-0.955 2.167s-1.372 0.918-2.203 0.917c-0.831 0-1.553-0.306-2.166-0.917s-0.92-1.333-0.918-2.167c0.002-0.833 0.308-1.567 0.918-2.204 0.61-0.634 1.332-0.952 2.166-0.954z"></path>
</svg>
<svg id="sicon-thumb_down" width="32" height="32" viewBox="0 0 32 32" x="0" y="256">
<path d="M25.942 1.755h5.738v17.080h-5.738v-17.080zM20.271 1.755c0.756 0 1.424 0.289 2.002 0.868s0.868 1.246 0.868 2.002v14.212c0 0.756-0.289 1.423-0.868 2.002l-9.341 9.408-1.535-1.535c-0.401-0.402-0.601-0.889-0.601-1.468v-0.468l1.402-6.539h-9.008c-0.756 0-1.423-0.277-2.002-0.833s-0.867-1.212-0.868-1.969l0.067-0.133h-0.067v-2.735c0-0.356 0.067-0.712 0.201-1.068l4.337-10.008c0.444-1.156 1.313-1.735 2.603-1.735l12.811 0z"></path>
</svg>
<svg id="sicon-thumb_up" width="32" height="32" viewBox="0 0 32 32" x="0" y="288">
<path d="M31.68 14.566l-0.067 0.133h0.067v2.736c0 0.356-0.067 0.712-0.2 1.068l-4.338 10.008c-0.445 1.156-1.313 1.735-2.603 1.735h-12.811c-0.756 0-1.424-0.289-2.002-0.869-0.578-0.578-0.868-1.245-0.868-2.002v-14.212c0-0.756 0.289-1.424 0.868-2.002l9.341-9.409 1.536 1.535c0.401 0.401 0.601 0.89 0.601 1.468v0.468l-1.401 6.539h9.008c0.756 0 1.424 0.278 2.002 0.834 0.578 0.557 0.867 1.212 0.867 1.969zM0.32 30.245v-17.081h5.739v17.081h-5.739z"></path>
</svg>
</svg>
